<svg width="22" height="22" viewBox="0 0 22 22" fill="none" xmlns="http://www.w3.org/2000/svg">
<circle cx="11" cy="11" r="11" fill="#552E5B" fill-opacity="0.9"/>
<path d="M7.83578 15C7.62334 15 7.4109 14.9218 7.24319 14.7541C6.91894 14.43 6.91894 13.8935 7.24319 13.5693L13.5716 7.2431C13.8959 6.91897 14.4326 6.91897 14.7568 7.2431C15.0811 7.56724 15.0811 8.10374 14.7568 8.42787L8.42837 14.7541C8.27184 14.9218 8.04822 15 7.83578 15Z" fill="#F3F3F3"/>
<path d="M14.1642 15C13.9518 15 13.7393 14.9218 13.5716 14.7541L7.24319 8.42787C6.91894 8.10374 6.91894 7.56724 7.24319 7.2431C7.56744 6.91897 8.10412 6.91897 8.42837 7.2431L14.7568 13.5693C15.0811 13.8935 15.0811 14.43 14.7568 14.7541C14.5891 14.9218 14.3767 15 14.1642 15Z" fill="#F3F3F3"/>
</svg>
