<svg width="24" height="24" viewBox="0 0 24 24" fill="none" xmlns="http://www.w3.org/2000/svg">
<path d="M9.47004 15.28C9.28004 15.28 9.09004 15.21 8.94004 15.06C8.12004 14.24 7.67004 13.15 7.67004 12C7.67004 9.60998 9.61004 7.66998 12 7.66998C13.15 7.66998 14.24 8.11998 15.06 8.93998C15.2 9.07998 15.28 9.26998 15.28 9.46998C15.28 9.66998 15.2 9.85998 15.06 9.99998L10 15.06C9.85004 15.21 9.66004 15.28 9.47004 15.28ZM12 9.16998C10.44 9.16998 9.17004 10.44 9.17004 12C9.17004 12.5 9.30004 12.98 9.54004 13.4L13.4 9.53998C12.98 9.29998 12.5 9.16998 12 9.16998Z" fill="#292D32"/>
<path d="M5.59997 18.51C5.42997 18.51 5.24997 18.45 5.10997 18.33C4.03997 17.42 3.07997 16.3 2.25997 15C1.19997 13.35 1.19997 10.66 2.25997 8.99998C4.69997 5.17998 8.24997 2.97998 12 2.97998C14.2 2.97998 16.37 3.73998 18.27 5.16998C18.6 5.41998 18.67 5.88998 18.42 6.21998C18.17 6.54998 17.7 6.61998 17.37 6.36998C15.73 5.12998 13.87 4.47998 12 4.47998C8.76997 4.47998 5.67997 6.41998 3.51997 9.80998C2.76997 10.98 2.76997 13.02 3.51997 14.19C4.26997 15.36 5.12997 16.37 6.07997 17.19C6.38997 17.46 6.42997 17.93 6.15997 18.25C6.01997 18.42 5.80997 18.51 5.59997 18.51Z" fill="#292D32"/>
<path d="M11.9999 21.02C10.6699 21.02 9.36994 20.75 8.11994 20.22C7.73994 20.06 7.55994 19.62 7.71994 19.24C7.87994 18.86 8.31994 18.68 8.69994 18.84C9.75994 19.29 10.8699 19.52 11.9899 19.52C15.2199 19.52 18.3099 17.58 20.4699 14.19C21.2199 13.02 21.2199 10.98 20.4699 9.81C20.1599 9.32 19.8199 8.85 19.4599 8.41C19.1999 8.09 19.2499 7.62 19.5699 7.35C19.8899 7.09 20.3599 7.13 20.6299 7.46C21.0199 7.94 21.3999 8.46 21.7399 9C22.7999 10.65 22.7999 13.34 21.7399 15C19.2999 18.82 15.7499 21.02 11.9999 21.02Z" fill="#292D32"/>
<path d="M12.69 16.27C12.34 16.27 12.02 16.02 11.95 15.66C11.87 15.25 12.14 14.86 12.55 14.79C13.65 14.59 14.57 13.67 14.77 12.57C14.85 12.16 15.24 11.9 15.65 11.97C16.06 12.05 16.33 12.44 16.25 12.85C15.93 14.58 14.55 15.95 12.83 16.27C12.78 16.26 12.74 16.27 12.69 16.27Z" fill="#292D32"/>
<path d="M1.99994 22.75C1.80994 22.75 1.61994 22.68 1.46994 22.53C1.17994 22.24 1.17994 21.76 1.46994 21.47L8.93994 14C9.22994 13.71 9.70994 13.71 9.99994 14C10.2899 14.29 10.2899 14.77 9.99994 15.06L2.52994 22.53C2.37994 22.68 2.18994 22.75 1.99994 22.75Z" fill="#292D32"/>
<path d="M14.53 10.22C14.34 10.22 14.15 10.15 14 10C13.71 9.71 13.71 9.23 14 8.94L21.47 1.47C21.76 1.18 22.24 1.18 22.53 1.47C22.82 1.76 22.82 2.24 22.53 2.53L15.06 10C14.91 10.15 14.72 10.22 14.53 10.22Z" fill="#292D32"/>
</svg>
