<svg width="36" height="35" viewBox="0 0 36 35" fill="none" xmlns="http://www.w3.org/2000/svg">
    <defs>
        <linearGradient id="paint0_linear_2585_14251" x1="10.0056" y1="9.28979" x2="10.0056" y2="16.4641" gradientUnits="userSpaceOnUse">
            <stop stop-color="#A9ABAD"/>
            <stop offset="1" stop-color="#292D32"/>
        </linearGradient>
        <linearGradient id="paint1_linear_2585_14251" x1="18.166" y1="2.99963" x2="18.166" y2="32.0353" gradientUnits="userSpaceOnUse">
            <stop stop-color="#A9ABAD"/>
            <stop offset="1" stop-color="#292D32"/>
        </linearGradient>
    </defs>
<path d="M10.1658 9.5712C8.63011 11.1069 7.84439 13.2855 8.05868 15.4998C8.13011 16.0355 8.59439 16.4641 9.13011 16.4641C9.16582 16.4641 9.20154 16.4641 9.23725 16.4641C9.80868 16.3926 10.273 15.8926 10.2015 15.2855C10.0587 13.7141 10.5944 12.1783 11.6658 11.0712C12.0944 10.6426 12.0944 9.96406 11.6658 9.5712C11.2373 9.21406 10.5944 9.17835 10.1658 9.5712Z" fill="url(#paint0_linear_2585_14251)"/>
<path d="M32.3446 30.1782L25.3089 23.1068C27.0946 20.9639 28.166 18.2496 28.166 15.2496C28.166 8.49964 22.666 2.99963 15.916 2.99963C9.16602 2.99963 3.66602 8.49964 3.66602 15.2496C3.66602 21.9639 9.16602 27.4996 15.916 27.4996C18.916 27.4996 21.666 26.4282 23.7732 24.6425L30.8446 31.7139C31.0589 31.9282 31.3446 32.0353 31.5946 32.0353C31.8446 32.0353 32.1303 31.9282 32.3446 31.7139C32.7732 31.2496 32.7732 30.5354 32.3446 30.1782ZM23.1303 22.3211C23.0946 22.3568 23.0946 22.3568 23.0589 22.3925C23.0232 22.4282 23.0232 22.4282 22.9874 22.4639C21.166 24.2496 18.666 25.3568 15.916 25.3568C10.3446 25.3568 5.80887 20.8211 5.80887 15.2496C5.80887 9.67821 10.3446 5.14249 15.916 5.14249C21.4874 5.10678 26.0232 9.64249 26.0232 15.2496C26.0232 17.9639 24.916 20.4639 23.1303 22.3211Z" fill="url(#paint1_linear_2585_14251)"/>
</svg>
