<svg width="27" height="27" viewBox="0 0 27 27" fill="none" xmlns="http://www.w3.org/2000/svg">
<path d="M20.3297 9.57372L10.6997 4.75872C4.23091 1.51872 1.57591 4.17372 4.81591 10.6425L5.79466 12.6C6.07591 13.1737 6.07591 13.8375 5.79466 14.4112L4.81591 16.3575C1.57591 22.8262 4.21966 25.4812 10.6997 22.2412L20.3297 17.4262C24.6497 15.2662 24.6497 11.7337 20.3297 9.57372ZM16.6959 14.3437H10.6209C10.1597 14.3437 9.77716 13.9612 9.77716 13.5C9.77716 13.0387 10.1597 12.6562 10.6209 12.6562H16.6959C17.1572 12.6562 17.5397 13.0387 17.5397 13.5C17.5397 13.9612 17.1572 14.3437 16.6959 14.3437Z" fill="#552E5B"/>
</svg>
